Coordinates
version=1
nRows=14
nColumns=40
inDegrees=yes

Units are S.I. units (second, meters, Newtons, ...)
Angles are in degrees.

endheader
time	pelvis_tilt	pelvis_list	pelvis_rotation	pelvis_tx	pelvis_ty	pelvis_tz	hip_flexion_r	hip_adduction_r	hip_rotation_r	knee_angle_r	knee_angle_r_beta	ankle_angle_r	subtalar_angle_r	mtp_angle_r	hip_flexion_l	hip_adduction_l	hip_rotation_l	knee_angle_l	knee_angle_l_beta	ankle_angle_l	subtalar_angle_l	mtp_angle_l	lumbar_extension	lumbar_bending	lumbar_rotation	arm_flex_r	arm_add_r	arm_rot_r	elbow_flex_r	pro_sup_r	wrist_flex_r	wrist_dev_r	arm_flex_l	arm_add_l	arm_rot_l	elbow_flex_l	pro_sup_l	wrist_flex_l	wrist_dev_l
     54.37250000	     -3.49035915	     -5.84943936	      4.04875342	      1.17376043	      0.92933116	      0.50941811	      8.79175943	      3.62299990	    -14.58113955	     18.28031367	     18.28031367	     13.55610034	     -1.11045679	     -2.25881073	     33.57052759	    -14.81790810	      0.43915880	     56.38636038	     56.38636038	     10.00387237	    -19.14288085	     15.52764780	    -10.41840223	      5.04368513	      1.85559186	     21.59675931	    -18.12324170	     -6.69587985	     82.16567812	     44.77909066	      0.00000000	      0.00000000	      3.56299517	     -9.47555340	    -14.31128532	     26.65116052	     46.96409778	      0.00000000	      0.00000000
     54.38585714	     -3.75356697	     -5.73379460	      4.54025942	      1.17227745	      0.92959086	      0.50882470	      8.63819797	      3.49217808	    -14.82165833	     17.98533437	     17.98533437	     13.55318429	     -1.28204800	     -2.20660783	     34.27036820	    -14.34954589	      0.04237680	     53.18942983	     53.18942983	     10.45495132	    -19.13253319	     15.89269642	    -10.25015187	      4.92463165	      2.18342479	     23.51560471	    -18.52192281	     -7.06352618	     83.54242720	     44.75761425	      0.00000000	      0.00000000	      3.14386151	     -9.39515811	    -14.35890384	     26.62855148	     46.96153193	      0.00000000	      0.00000000
     54.39921429	     -3.81634664	     -5.58478272	      5.06289113	      1.17092692	      0.93013764	      0.50799357	      8.18580076	      3.33673437	    -15.14175677	     17.57209390	     17.57209390	     13.51681073	     -1.32742479	     -2.21012243	     34.53085646	    -13.66921790	     -0.08098309	     49.70081662	     49.70081662	     10.76407962	    -19.04020842	     16.16778470	    -10.43363243	      4.83257380	      2.02525168	     25.15781198	    -18.25318747	     -7.43726368	     86.89410158	     44.67883796	      0.00000000	      0.00000000	      2.34297140	     -9.41897643	    -14.56855501	     26.96985645	     46.97111717	      0.00000000	      0.00000000
     54.41257143	     -4.04459125	     -5.44166168	      5.55638062	      1.16946702	      0.93026127	      0.50684948	      7.96252906	      3.12621567	    -15.50107431	     17.25180396	     17.25180396	     13.50890536	     -1.28770076	     -2.40021119	     34.84819672	    -12.83251278	      0.09196191	     46.12612700	     46.12612700	     10.63905666	    -18.87275340	     15.61831716	    -10.42960567	      4.74081408	      2.48980937	     26.33201270	    -18.65876212	     -8.08714934	     90.21978009	     44.62357351	      0.00000000	      0.00000000	      1.77695281	     -9.24936420	    -14.88295858	     27.84667811	     46.98712544	      0.00000000	      0.00000000
     54.42592857	     -4.28815401	     -5.26132082	      5.98608246	      1.16794755	      0.93029450	      0.50557826	      7.77455947	      2.88486419	    -15.70361379	     16.97625854	     16.97625854	     13.56214806	     -1.41333717	     -2.40840332	     35.06669462	    -11.86714077	      0.55799774	     42.59251948	     42.59251948	     10.62342541	    -18.48587219	     15.72318983	    -10.32858638	      4.58547074	      2.70897514	     28.20487845	    -18.84225535	     -8.35573906	     91.55645047	     44.60268895	      0.00000000	      0.00000000	      1.42686956	     -9.13030689	    -14.90770857	     27.77819466	     46.98008251	      0.00000000	      0.00000000
     54.43928571	     -4.48117231	     -5.07366158	      6.39951273	      1.16656477	      0.93022828	      0.50413460	      7.48347486	      2.62978738	    -15.96362024	     16.64948123	     16.64948123	     13.65688130	     -1.39660131	     -2.46121014	     35.12687144	    -10.89198821	      1.24368806	     39.17320103	     39.17320103	     10.48241224	    -17.80966915	     15.54469170	    -10.29996088	      4.42338736	      2.75392563	     30.02249480	    -18.80436733	     -8.50106066	     93.34677179	     44.56426369	      0.00000000	      0.00000000	      0.98431237	     -9.01072164	    -14.96052838	     27.75158261	     46.97493915	      0.00000000	      0.00000000
     54.45264286	     -4.78649769	     -5.16989255	      6.82200300	      1.16510061	      0.92959607	      0.50264830	      7.43037837	      2.64644734	    -16.29965733	     16.47316760	     16.47316760	     13.79395294	     -1.47240735	     -2.53088487	     35.45369976	    -10.24044573	      2.17385559	     36.19345334	     36.19345334	     10.56746830	    -16.51970348	     15.54756768	    -10.07819441	      4.56372786	      3.03068008	     31.68602877	    -19.06959451	     -8.67319912	     94.36614648	     44.54695386	      0.00000000	      0.00000000	      0.70684870	     -8.77148329	    -14.97230429	     27.73503232	     46.96897735	      0.00000000	      0.00000000
     54.46600000	     -4.80395843	     -4.94283288	      7.14240765	      1.16416534	      0.92939061	      0.50093061	      6.77913470	      2.34551759	    -16.78228215	     15.91935519	     15.91935519	     13.92932566	     -0.78948799	     -3.04480995	     35.03427908	     -9.43223165	      2.81443938	     32.99199986	     32.99199986	      9.21445246	    -15.58163448	     12.11751022	    -10.34118367	      4.37957717	      3.24743724	     32.88865889	    -19.25300038	     -8.52026075	     97.92783260	     44.48380567	      0.00000000	      0.00000000	      0.06573316	     -8.56373233	    -15.43137454	     28.58836358	     46.98964238	      0.00000000	      0.00000000
     54.47935714	     -5.03374976	     -4.93509235	      7.42158958	      1.16309698	      0.92860234	      0.49925830	      6.52841867	      2.29486362	    -16.93035542	     15.60507851	     15.60507851	     14.15893752	     -0.84410597	     -3.09455421	     35.13676955	     -8.87527199	      3.59412414	     30.65836858	     30.65836858	      9.27600624	    -14.10813929	     12.21098922	    -10.16000629	      4.40127391	      3.48880570	     34.55207520	    -19.32519674	     -8.63650962	     98.68793846	     44.47458847	      0.00000000	      0.00000000	     -0.17494173	     -8.34906369	    -15.41519357	     28.42374768	     46.97922280	      0.00000000	      0.00000000
     54.49271429	     -5.13393255	     -4.91390163	      7.63788470	      1.16232635	      0.92785972	      0.49758855	      6.04892279	      2.26115817	    -17.04506204	     15.16220552	     15.16220552	     14.39580580	     -0.69919070	     -3.15116190	     35.06207472	     -8.45298415	      4.13945738	     28.74435049	     28.74435049	      9.30408290	    -12.71898586	     12.24625620	    -10.11898517	      4.34705971	      3.63572147	     36.10391058	    -19.20507792	     -8.56508059	     99.64730171	     44.45319279	      0.00000000	      0.00000000	     -0.46018735	     -8.17288163	    -15.41124813	     28.23238387	     46.96977752	      0.00000000	      0.00000000
     54.50607143	     -5.29221350	     -4.98291133	      7.80235774	      1.16170795	      0.92677883	      0.49584016	      5.66467531	      2.30530463	    -17.16101641	     14.78959691	     14.78959691	     14.68398320	     -0.56557052	     -3.23538890	     35.10657059	     -8.17083815	      4.57520699	     27.35331331	     27.35331331	      9.31593916	    -11.61892504	     12.25993395	     -9.94381366	      4.41677893	      3.86666342	     37.46042658	    -19.19136080	     -8.50283810	    100.37894458	     44.43709504	      0.00000000	      0.00000000	     -0.71866291	     -7.96075877	    -15.40168658	     28.10962961	     46.95992454	      0.00000000	      0.00000000
     54.51942857	     -5.16875854	     -4.95202572	      7.88472329	      1.16161244	      0.92614880	      0.49406704	      4.70921445	      2.34354102	    -17.28366769	     13.97666439	     13.97666439	     14.93803111	     -0.02628585	     -3.30799637	     34.71529161	     -7.98300591	      4.48392462	     26.28697674	     26.28697674	      9.27504873	    -10.67993935	     12.11252958	    -10.14241639	      4.35564403	      3.85254282	     38.76460400	    -18.77840949	     -7.99064163	    101.55809802	     44.39638444	      0.00000000	      0.00000000	     -1.04346436	     -7.86094825	    -15.42307537	     27.84217485	     46.95266812	      0.00000000	      0.00000000
     54.53278571	     -5.17166888	     -5.07858106	      7.92166382	      1.16170500	      0.92499238	      0.49222875	      3.94969164	      2.48918064	    -17.56073281	     13.27460077	     13.27460077	     15.12026506	      0.69443784	     -3.81555630	     34.50776986	     -7.97687061	      4.23725018	     25.65173307	     25.65173307	      8.75416963	    -10.20948596	     10.73292914	    -10.06191994	      4.47983563	      3.81120171	     39.95616495	    -18.76157764	     -6.74521681	    102.21605443	     44.39015385	      0.00000000	      0.00000000	     -1.41873030	     -7.66453226	    -15.72400240	     27.61072505	     46.96094957	      0.00000000	      0.00000000
     54.54614286	     -5.28057460	     -5.16816567	      7.84944975	      1.16186775	      0.92364741	      0.49039574	      3.46972286	      2.56566674	    -17.44979956	     12.90189896	     12.90189896	     15.46687213	      0.85839184	     -3.88201880	     34.36460333	     -7.95502985	      3.84675078	     25.38571986	     25.38571986	      8.57730310	    -10.21880940	     10.76395010	     -9.84114610	      4.48826321	      4.11888734	     40.78395413	    -18.60420628	     -6.69414574	    102.57749799	     44.38467562	      0.00000000	      0.00000000	     -1.63260095	     -7.48240720	    -15.73141896	     27.48528648	     46.95493623	      0.00000000	      0.00000000
